<svg width="22" height="22" viewBox="0 0 22 22" fill="none" xmlns="http://www.w3.org/2000/svg">
<path d="M19.1237 17.9653L13.6637 12.5052C14.511 11.4099 14.9693 10.0706 14.9693 8.662C14.9693 6.97585 14.3112 5.39482 13.1213 4.20274C11.9313 3.01066 10.3461 2.35471 8.66201 2.35471C6.97797 2.35471 5.39273 3.01277 4.20276 4.20274C3.01068 5.39272 2.35472 6.97585 2.35472 8.662C2.35472 10.346 3.01278 11.9313 4.20276 13.1213C5.39273 14.3133 6.97586 14.9693 8.66201 14.9693C10.0706 14.9693 11.4078 14.511 12.5032 13.6658L17.9632 19.1237C17.9792 19.1397 17.9982 19.1524 18.0191 19.1611C18.04 19.1698 18.0625 19.1742 18.0851 19.1742C18.1078 19.1742 18.1302 19.1698 18.1511 19.1611C18.172 19.1524 18.191 19.1397 18.207 19.1237L19.1237 18.2091C19.1397 18.1931 19.1524 18.1741 19.1611 18.1532C19.1698 18.1323 19.1742 18.1098 19.1742 18.0872C19.1742 18.0645 19.1698 18.0421 19.1611 18.0212C19.1524 18.0003 19.1397 17.9813 19.1237 17.9653V17.9653ZM11.9923 11.9922C11.1008 12.8816 9.91927 13.3714 8.66201 13.3714C7.40476 13.3714 6.22319 12.8816 5.33176 11.9922C4.44243 11.1008 3.95257 9.91925 3.95257 8.662C3.95257 7.40474 4.44243 6.22108 5.33176 5.33175C6.22319 4.44242 7.40476 3.95255 8.66201 3.95255C9.91927 3.95255 11.1029 4.44032 11.9923 5.33175C12.8816 6.22318 13.3715 7.40474 13.3715 8.662C13.3715 9.91925 12.8816 11.1029 11.9923 11.9922Z" fill="black"/>
</svg>
