<svg width="20" height="20" viewBox="0 0 20 20" fill="none" xmlns="http://www.w3.org/2000/svg">
<path d="M17.1054 3.0275H2.27062C2.18737 3.0275 2.11925 3.09562 2.11925 3.17887V4.38987C2.11925 4.47313 2.18737 4.54125 2.27062 4.54125H17.1054C17.1886 4.54125 17.2567 4.47313 17.2567 4.38987V3.17887C17.2567 3.09562 17.1886 3.0275 17.1054 3.0275ZM17.1054 14.8347H2.27062C2.18737 14.8347 2.11925 14.9029 2.11925 14.9861V16.1971C2.11925 16.2804 2.18737 16.3485 2.27062 16.3485H17.1054C17.1886 16.3485 17.2567 16.2804 17.2567 16.1971V14.9861C17.2567 14.9029 17.1886 14.8347 17.1054 14.8347ZM17.1054 8.93112H2.27062C2.18737 8.93112 2.11925 8.99924 2.11925 9.0825V10.2935C2.11925 10.3768 2.18737 10.4449 2.27062 10.4449H17.1054C17.1886 10.4449 17.2567 10.3768 17.2567 10.2935V9.0825C17.2567 8.99924 17.1886 8.93112 17.1054 8.93112Z" fill="black"/>
</svg>
