<svg xmlns="http://www.w3.org/2000/svg" width="895.593" height="639.82" viewBox="0 0 895.593 639.82">
  <g id="Group_36" data-name="Group 36" transform="translate(-0.005)">
    <rect id="Rectangle_40" data-name="Rectangle 40" width="207.972" height="302.01" rx="13.435" transform="translate(67.193 47.42) rotate(-12.753)" fill="#3f3d56"/>
    <circle id="Ellipse_37" data-name="Ellipse 37" cx="6" cy="6" r="6" transform="translate(81.597 81)" fill="#fff"/>
    <circle id="Ellipse_38" data-name="Ellipse 38" cx="6" cy="6" r="6" transform="translate(87.597 103)" fill="#fff"/>
    <circle id="Ellipse_39" data-name="Ellipse 39" cx="6" cy="6" r="6" transform="translate(126.597 264)" fill="#fff"/>
    <circle id="Ellipse_40" data-name="Ellipse 40" cx="6" cy="6" r="6" transform="translate(132.597 286)" fill="#fff"/>
    <rect id="Rectangle_41" data-name="Rectangle 41" width="124.876" height="20.813" transform="translate(134.391 143.647) rotate(-12.753)" fill="#f5f5f5"/>
    <rect id="Rectangle_42" data-name="Rectangle 42" width="207.972" height="302.01" transform="translate(214.979 152.949) rotate(-12.753)" fill="#6c63ff"/>
    <rect id="Rectangle_43" data-name="Rectangle 43" width="207.972" height="302.01" transform="translate(428.885 104.538) rotate(-12.753)" fill="#3f3d56"/>
    <rect id="Rectangle_44" data-name="Rectangle 44" width="124.876" height="20.813" transform="translate(258.391 176.646) rotate(-12.753)" fill="#f5f5f5"/>
    <rect id="Rectangle_45" data-name="Rectangle 45" width="166.502" height="5.203" transform="translate(249.193 230.297) rotate(-12.753)" fill="#f5f5f5"/>
    <rect id="Rectangle_46" data-name="Rectangle 46" width="166.502" height="5.203" transform="translate(251.873 242.137) rotate(-12.753)" fill="#f5f5f5"/>
    <rect id="Rectangle_47" data-name="Rectangle 47" width="166.502" height="5.203" transform="translate(254.553 253.978) rotate(-12.753)" fill="#f5f5f5"/>
    <rect id="Rectangle_48" data-name="Rectangle 48" width="79.782" height="5.203" transform="translate(257.234 265.82) rotate(-12.753)" fill="#f5f5f5"/>
    <rect id="Rectangle_49" data-name="Rectangle 49" width="91.923" height="5.203" transform="translate(259.914 277.661) rotate(-12.753)" fill="#f5f5f5"/>
    <rect id="Rectangle_50" data-name="Rectangle 50" width="166.502" height="5.203" transform="translate(262.593 289.502) rotate(-12.753)" fill="#f5f5f5"/>
    <rect id="Rectangle_51" data-name="Rectangle 51" width="166.502" height="5.203" transform="translate(265.273 301.343) rotate(-12.753)" fill="#f5f5f5"/>
    <rect id="Rectangle_52" data-name="Rectangle 52" width="154.361" height="5.203" transform="translate(267.953 313.185) rotate(-12.753)" fill="#f5f5f5"/>
    <rect id="Rectangle_53" data-name="Rectangle 53" width="166.502" height="5.203" transform="translate(270.633 325.026) rotate(-12.753)" fill="#f5f5f5"/>
    <rect id="Rectangle_54" data-name="Rectangle 54" width="86.72" height="5.203" transform="translate(273.313 336.868) rotate(-12.753)" fill="#f5f5f5"/>
    <rect id="Rectangle_55" data-name="Rectangle 55" width="91.923" height="5.203" transform="translate(496.284 300.63) rotate(-12.753)" fill="#6c63ff" opacity="0.3"/>
    <rect id="Rectangle_56" data-name="Rectangle 56" width="166.502" height="5.203" transform="translate(498.964 312.471) rotate(-12.753)" fill="#6c63ff" opacity="0.3"/>
    <rect id="Rectangle_57" data-name="Rectangle 57" width="166.502" height="5.203" transform="translate(501.644 324.312) rotate(-12.753)" fill="#6c63ff" opacity="0.3"/>
    <rect id="Rectangle_58" data-name="Rectangle 58" width="154.361" height="5.203" transform="translate(504.324 336.154) rotate(-12.753)" fill="#6c63ff" opacity="0.3"/>
    <rect id="Rectangle_59" data-name="Rectangle 59" width="166.502" height="5.203" transform="translate(507.004 347.995) rotate(-12.753)" fill="#6c63ff" opacity="0.3"/>
    <rect id="Rectangle_60" data-name="Rectangle 60" width="100.595" height="69.376" transform="translate(338.805 343.384) rotate(-12.753)" fill="#f5f5f5"/>
    <rect id="Rectangle_61" data-name="Rectangle 61" width="100.595" height="69.376" transform="translate(454.936 117.936) rotate(-12.753)" fill="#6c63ff" opacity="0.3"/>
    <rect id="Rectangle_62" data-name="Rectangle 62" width="100.595" height="69.376" transform="translate(550.966 188.672) rotate(-12.753)" fill="#6c63ff" opacity="0.3"/>
    <g id="Group_33" data-name="Group 33" opacity="0.5">
      <rect id="Rectangle_63" data-name="Rectangle 63" width="3" height="17" transform="translate(185.597 510.286)" fill="#47e6b1"/>
      <rect id="Rectangle_64" data-name="Rectangle 64" width="3" height="17" transform="translate(195.598 517.287) rotate(90)" fill="#47e6b1"/>
    </g>
    <g id="Group_34" data-name="Group 34" opacity="0.5">
      <rect id="Rectangle_65" data-name="Rectangle 65" width="3" height="17" transform="translate(512.597)" fill="#47e6b1"/>
      <rect id="Rectangle_66" data-name="Rectangle 66" width="3" height="17" transform="translate(522.597 7) rotate(90)" fill="#47e6b1"/>
    </g>
    <g id="Group_35" data-name="Group 35" opacity="0.5">
      <rect id="Rectangle_67" data-name="Rectangle 67" width="3" height="17" transform="translate(885.597 125)" fill="#47e6b1"/>
      <rect id="Rectangle_68" data-name="Rectangle 68" width="3" height="17" transform="translate(895.597 132.001) rotate(90)" fill="#47e6b1"/>
    </g>
    <path id="Path_44" data-name="Path 44" d="M512.491,638.68a3.675,3.675,0,0,1-2.047-4.441,1.764,1.764,0,0,0,.08-.408h0a1.843,1.843,0,0,0-3.31-1.221h0a1.764,1.764,0,0,0-.2.362,3.675,3.675,0,0,1-4.441,2.047,1.77,1.77,0,0,0-.408-.08h0a1.843,1.843,0,0,0-1.221,3.31h0a1.766,1.766,0,0,0,.362.2,3.675,3.675,0,0,1,2.048,4.441,1.765,1.765,0,0,0-.08.407h0a1.843,1.843,0,0,0,3.311,1.221h0a1.767,1.767,0,0,0,.2-.362,3.675,3.675,0,0,1,4.441-2.048,1.766,1.766,0,0,0,.408.08h0a1.843,1.843,0,0,0,1.221-3.31h0A1.768,1.768,0,0,0,512.491,638.68Z" transform="translate(-152.201 -130.088)" fill="#4d8af0" opacity="0.5"/>
    <path id="Path_45" data-name="Path 45" d="M658.689,763.331a3.675,3.675,0,0,1-2.047-4.441,1.765,1.765,0,0,0,.08-.408h0a1.843,1.843,0,0,0-3.31-1.221h0a1.767,1.767,0,0,0-.2.362,3.675,3.675,0,0,1-4.441,2.047,1.77,1.77,0,0,0-.408-.08h0a1.843,1.843,0,0,0-1.221,3.31h0a1.762,1.762,0,0,0,.362.2,3.675,3.675,0,0,1,2.047,4.441,1.766,1.766,0,0,0-.08.408h0a1.843,1.843,0,0,0,3.31,1.221h0a1.768,1.768,0,0,0,.2-.362,3.675,3.675,0,0,1,4.441-2.047,1.771,1.771,0,0,0,.407.08h0a1.843,1.843,0,0,0,1.221-3.31h0a1.764,1.764,0,0,0-.362-.2Z" transform="translate(-152.201 -130.088)" fill="#4d8af0" opacity="0.5"/>
    <path id="Path_46" data-name="Path 46" d="M164.491,341.393a3.675,3.675,0,0,1-2.048-4.441,1.766,1.766,0,0,0,.08-.408h0a1.843,1.843,0,0,0-3.31-1.221h0a1.766,1.766,0,0,0-.2.362,3.675,3.675,0,0,1-4.441,2.048,1.767,1.767,0,0,0-.408-.08h0a1.843,1.843,0,0,0-1.221,3.31h0a1.768,1.768,0,0,0,.362.2,3.675,3.675,0,0,1,2.047,4.441,1.766,1.766,0,0,0-.08.408h0a1.843,1.843,0,0,0,3.31,1.221h0a1.766,1.766,0,0,0,.2-.362,3.675,3.675,0,0,1,4.441-2.047,1.767,1.767,0,0,0,.408.08h0a1.843,1.843,0,0,0,1.221-3.31h0a1.766,1.766,0,0,0-.362-.2Z" transform="translate(-152.201 -130.088)" fill="#4d8af0" opacity="0.5"/>
    <path id="Path_47" data-name="Path 47" d="M1029.69,493.33a3.675,3.675,0,0,1-2.048-4.441,1.764,1.764,0,0,0,.08-.408h0a1.843,1.843,0,0,0-3.31-1.221h0a1.767,1.767,0,0,0-.2.362,3.674,3.674,0,0,1-4.441,2.047,1.762,1.762,0,0,0-.408-.08h0a1.843,1.843,0,0,0-1.221,3.31h0a1.766,1.766,0,0,0,.362.2,3.675,3.675,0,0,1,2.047,4.441,1.77,1.77,0,0,0-.08.408h0a1.843,1.843,0,0,0,3.31,1.221h0a1.766,1.766,0,0,0,.2-.362,3.675,3.675,0,0,1,4.441-2.047,1.764,1.764,0,0,0,.407.08h0a1.843,1.843,0,0,0,1.221-3.311h0a1.768,1.768,0,0,0-.362-.2Z" transform="translate(-152.201 -130.088)" fill="#4d8af0" opacity="0.5"/>
    <circle id="Ellipse_41" data-name="Ellipse 41" cx="6" cy="6" r="6" transform="translate(101.597 449.286)" fill="#f55f44" opacity="0.5"/>
    <circle id="Ellipse_42" data-name="Ellipse 42" cx="6" cy="6" r="6" transform="translate(315.597)" fill="#4d8af0" opacity="0.5"/>
    <circle id="Ellipse_43" data-name="Ellipse 43" cx="6" cy="6" r="6" transform="translate(457.796 451.937)" fill="#47e6b1" opacity="0.5"/>
    <circle id="Ellipse_44" data-name="Ellipse 44" cx="6" cy="6" r="6" transform="translate(803.796 601.937)" fill="#f55f44" opacity="0.5"/>
    <rect id="Rectangle_69" data-name="Rectangle 69" width="207.972" height="302.01" rx="13.435" transform="translate(505.192 174.418) rotate(-12.753)" fill="#6c63ff"/>
    <circle id="Ellipse_45" data-name="Ellipse 45" cx="6" cy="6" r="6" transform="translate(519.597 208)" fill="#fff"/>
    <circle id="Ellipse_46" data-name="Ellipse 46" cx="6" cy="6" r="6" transform="translate(525.597 230)" fill="#fff"/>
    <circle id="Ellipse_47" data-name="Ellipse 47" cx="6" cy="6" r="6" transform="translate(564.597 391)" fill="#fff"/>
    <circle id="Ellipse_48" data-name="Ellipse 48" cx="6" cy="6" r="6" transform="translate(570.597 413)" fill="#fff"/>
    <rect id="Rectangle_70" data-name="Rectangle 70" width="124.876" height="20.813" transform="translate(572.39 270.644) rotate(-12.753)" fill="#f5f5f5"/>
  </g>
</svg>
